<?xml version="1.0" encoding="UTF-8"?>
<svg id="Layer_1" data-name="Layer 1" xmlns="http://www.w3.org/2000/svg" viewBox="0 0 64 80">
  <defs>
    <style>
      .cls-1 {
        fill: #004599;
      }

      .cls-2 {
        fill: #0673f9;
      }
    </style>
  </defs>
  <path class="cls-2" d="M44,0v8h6.34l-14.14,14.14c-3.58-2.13-7.74-3.37-12.2-3.37H4v8h20c8.82,0,16,7.18,16,16v28h8v-28c0-5.88-2.14-11.27-5.66-15.45l13.66-13.66v6.34h8V0h-20Z"/>
  <path class="cls-1" d="M56,48.52l-.08.97c-.8,13.03-11.97,23.14-25.14,22.48-12.29-.62-21.97-10.76-22.73-23.04l-.05-.81V8h32V0H0v48.24l.1,1.74c1.04,16.83,15.05,30.02,31.9,30.02,15.92,0,29.4-11.76,31.71-27.16.23-1.51.29-3.04.29-4.56v-24.28h-8v24.52Z"/>
</svg>